<svg width="24" height="24" viewBox="0 0 24 24" fill="none" xmlns="http://www.w3.org/2000/svg">
<g clip-path="url(#clip0_71_1337)">
<path d="M20.1374 4.3125C19.9364 4.47259 19.7436 4.64281 19.5599 4.8225C18.7003 5.57924 17.986 6.48663 17.4524 7.5C17.6513 7.5 17.8421 7.57902 17.9828 7.71967C18.1234 7.86032 18.2024 8.05109 18.2024 8.25C18.2024 8.44891 18.1234 8.63968 17.9828 8.78033C17.8421 8.92098 17.6513 9 17.4524 9H16.7999C16.5613 9.72918 16.4127 10.4848 16.3574 11.25H16.6949C16.8938 11.25 17.0846 11.329 17.2253 11.4697C17.3659 11.6103 17.4449 11.8011 17.4449 12C17.4449 12.1989 17.3659 12.3897 17.2253 12.5303C17.0846 12.671 16.8938 12.75 16.6949 12.75H16.3574C16.4142 13.515 16.5628 14.2704 16.7999 15H17.4449C17.6438 15 17.8346 15.079 17.9753 15.2197C18.1159 15.3603 18.1949 15.5511 18.1949 15.75C18.1949 15.9489 18.1159 16.1397 17.9753 16.2803C17.8346 16.421 17.6438 16.5 17.4449 16.5C17.9793 17.5198 18.6874 18.4386 19.5374 19.215C19.7324 19.395 19.9349 19.56 20.1374 19.725C22.125 17.643 23.2389 14.8784 23.2499 12C23.2549 9.1296 22.138 6.37089 20.1374 4.3125Z" fill="url(#paint0_linear_71_1337)"/>
<path d="M6.555 7.5C6.03506 6.49873 5.33894 5.59936 4.5 4.845C4.305 4.6575 4.1025 4.485 3.8925 4.3125C1.88435 6.36831 0.756996 9.12616 0.75 12C0.761053 14.8784 1.87496 17.643 3.8625 19.725C4.06612 19.5678 4.26138 19.4001 4.4475 19.2225C5.30593 18.4472 6.01956 17.5253 6.555 16.5C6.35609 16.5 6.16532 16.421 6.02467 16.2803C5.88402 16.1397 5.805 15.9489 5.805 15.75C5.805 15.5511 5.88402 15.3603 6.02467 15.2197C6.16532 15.079 6.35609 15 6.555 15H7.2C7.43715 14.2704 7.58571 13.515 7.6425 12.75H7.3125C7.11359 12.75 6.92282 12.671 6.78217 12.5303C6.64152 12.3897 6.5625 12.1989 6.5625 12C6.5625 11.8011 6.64152 11.6103 6.78217 11.4697C6.92282 11.329 7.11359 11.25 7.3125 11.25H7.6425C7.58718 10.4848 7.43858 9.72918 7.2 9H6.555C6.35609 9 6.16532 8.92098 6.02467 8.78033C5.88402 8.63968 5.805 8.44891 5.805 8.25C5.805 8.05109 5.88402 7.86032 6.02467 7.71967C6.16532 7.57902 6.35609 7.5 6.555 7.5Z" fill="url(#paint1_linear_71_1337)"/>
<path d="M18.5173 20.3175C17.3345 19.2557 16.3911 17.9544 15.7498 16.5H15.1723C14.9734 16.5 14.7827 16.421 14.642 16.2803C14.5014 16.1397 14.4223 15.9489 14.4223 15.75C14.4223 15.5511 14.5014 15.3603 14.642 15.2196C14.7827 15.079 14.9734 15 15.1723 15H15.2248C15.0198 14.2649 14.8892 13.5111 14.8348 12.75H14.4223C14.2234 12.75 14.0327 12.671 13.892 12.5303C13.7514 12.3897 13.6723 12.1989 13.6723 12C13.6723 11.8011 13.7514 11.6103 13.892 11.4696C14.0327 11.329 14.2234 11.25 14.4223 11.25H14.8348C14.8886 10.4887 15.0192 9.73489 15.2248 8.99998H15.1723C14.9734 8.99998 14.7827 8.92096 14.642 8.78031C14.5014 8.63966 14.4223 8.44889 14.4223 8.24998C14.4223 8.05107 14.5014 7.8603 14.642 7.71965C14.7827 7.579 14.9734 7.49998 15.1723 7.49998H15.7498C16.3909 6.06491 17.335 4.78562 18.5173 3.74998C18.6748 3.59248 18.8473 3.45748 19.0123 3.31498C17.0538 1.654 14.5678 0.744693 11.9998 0.749979C9.42734 0.727644 6.93182 1.62688 4.96484 3.28498L5.48984 3.74248C6.67137 4.78008 7.61313 6.0622 8.24984 7.49998H8.82734C9.02626 7.49998 9.21702 7.579 9.35767 7.71965C9.49833 7.8603 9.57734 8.05107 9.57734 8.24998C9.57734 8.44889 9.49833 8.63966 9.35767 8.78031C9.21702 8.92096 9.02626 8.99998 8.82734 8.99998H8.77484C8.9841 9.73406 9.11483 10.4883 9.16484 11.25H9.58484C9.78376 11.25 9.97452 11.329 10.1152 11.4696C10.2558 11.6103 10.3348 11.8011 10.3348 12C10.3348 12.1989 10.2558 12.3897 10.1152 12.5303C9.97452 12.671 9.78376 12.75 9.58484 12.75H9.16484C9.11053 13.5111 8.97987 14.2649 8.77484 15H8.82734C9.02626 15 9.21702 15.079 9.35767 15.2196C9.49833 15.3603 9.57734 15.5511 9.57734 15.75C9.57734 15.9489 9.49833 16.1397 9.35767 16.2803C9.21702 16.421 9.02626 16.5 8.82734 16.5H8.24984C7.61247 17.9568 6.67151 19.2609 5.48984 20.325C5.33234 20.475 5.15984 20.6175 4.98734 20.7525C6.96178 22.3778 9.44252 23.2613 11.9998 23.25C14.5648 23.2659 17.0541 22.3822 19.0348 20.7525C18.8623 20.61 18.6823 20.475 18.5173 20.3175Z" fill="url(#paint2_linear_71_1337)"/>
</g>
<defs>
<linearGradient id="paint0_linear_71_1337" x1="19.8037" y1="4.3125" x2="19.8037" y2="19.725" gradientUnits="userSpaceOnUse">
<stop stop-color="#FFE3A7"/>
<stop offset="1" stop-color="#E3A405"/>
</linearGradient>
<linearGradient id="paint1_linear_71_1337" x1="4.19625" y1="4.3125" x2="4.19625" y2="19.725" gradientUnits="userSpaceOnUse">
<stop stop-color="#FFE3A7"/>
<stop offset="1" stop-color="#E3A405"/>
</linearGradient>
<linearGradient id="paint2_linear_71_1337" x1="11.9998" y1="0.749573" x2="11.9998" y2="23.2502" gradientUnits="userSpaceOnUse">
<stop stop-color="#FFE3A7"/>
<stop offset="1" stop-color="#E3A405"/>
</linearGradient>
<clipPath id="clip0_71_1337">
<rect width="24" height="24" fill="white"/>
</clipPath>
</defs>
</svg>
