<svg width="24" height="24" viewBox="0 0 24 24" fill="none" xmlns="http://www.w3.org/2000/svg">
<g clip-path="url(#clip0_71_1344)">
<path d="M21.417 4.6012C19.6931 6.34959 18.5834 8.69624 18.4106 11.2969H24.0001C23.8524 8.77663 22.8923 6.46565 21.417 4.6012Z" fill="url(#paint0_linear_71_1344)"/>
<path d="M12.7031 0V11.2969H17.0044C17.1814 8.27709 18.47 5.55145 20.4844 3.54197C18.4768 1.53928 15.7126 0.176391 12.7031 0Z" fill="url(#paint1_linear_71_1344)"/>
<path d="M18.4106 12.7031C18.5833 15.3037 19.693 17.6973 21.417 19.4457C22.8922 17.5812 23.8523 15.2234 24 12.7031H18.4106Z" fill="url(#paint2_linear_71_1344)"/>
<path d="M3.51562 3.54197C5.52998 5.55145 6.81863 8.27709 6.99563 11.2969H11.2969V0C8.28741 0.176391 5.52319 1.53928 3.51562 3.54197Z" fill="url(#paint3_linear_71_1344)"/>
<path d="M17.0044 12.7031H12.7031V24C15.7126 23.8236 18.4768 22.5076 20.4844 20.5049C18.47 18.4954 17.1814 15.7229 17.0044 12.7031Z" fill="url(#paint4_linear_71_1344)"/>
<path d="M6.99563 12.7031C6.81863 15.7229 5.52998 18.4954 3.51562 20.5049C5.52319 22.5076 8.28741 23.8237 11.2969 24V12.7031H6.99563Z" fill="url(#paint5_linear_71_1344)"/>
<path d="M0 12.7031C0.147703 15.2234 1.1078 17.5812 2.58309 19.4457C4.30702 17.6973 5.41669 15.3038 5.58942 12.7031H0Z" fill="url(#paint6_linear_71_1344)"/>
<path d="M2.58305 4.6012C1.1078 6.46565 0.147703 8.77663 0 11.2969H5.58938C5.41669 8.69629 4.30697 6.34959 2.58305 4.6012Z" fill="url(#paint7_linear_71_1344)"/>
</g>
<defs>
<linearGradient id="paint0_linear_71_1344" x1="21.2054" y1="4.6012" x2="21.2054" y2="11.2969" gradientUnits="userSpaceOnUse">
<stop stop-color="#FFE3A7"/>
<stop offset="1" stop-color="#E3A405"/>
</linearGradient>
<linearGradient id="paint1_linear_71_1344" x1="16.5938" y1="0" x2="16.5938" y2="11.2969" gradientUnits="userSpaceOnUse">
<stop stop-color="#FFE3A7"/>
<stop offset="1" stop-color="#E3A405"/>
</linearGradient>
<linearGradient id="paint2_linear_71_1344" x1="21.2053" y1="12.7031" x2="21.2053" y2="19.4457" gradientUnits="userSpaceOnUse">
<stop stop-color="#FFE3A7"/>
<stop offset="1" stop-color="#E3A405"/>
</linearGradient>
<linearGradient id="paint3_linear_71_1344" x1="7.40625" y1="0" x2="7.40625" y2="11.2969" gradientUnits="userSpaceOnUse">
<stop stop-color="#FFE3A7"/>
<stop offset="1" stop-color="#E3A405"/>
</linearGradient>
<linearGradient id="paint4_linear_71_1344" x1="16.5938" y1="12.7031" x2="16.5938" y2="24" gradientUnits="userSpaceOnUse">
<stop stop-color="#FFE3A7"/>
<stop offset="1" stop-color="#E3A405"/>
</linearGradient>
<linearGradient id="paint5_linear_71_1344" x1="7.40625" y1="12.7031" x2="7.40625" y2="24" gradientUnits="userSpaceOnUse">
<stop stop-color="#FFE3A7"/>
<stop offset="1" stop-color="#E3A405"/>
</linearGradient>
<linearGradient id="paint6_linear_71_1344" x1="2.79471" y1="12.7031" x2="2.79471" y2="19.4457" gradientUnits="userSpaceOnUse">
<stop stop-color="#FFE3A7"/>
<stop offset="1" stop-color="#E3A405"/>
</linearGradient>
<linearGradient id="paint7_linear_71_1344" x1="2.79469" y1="4.6012" x2="2.79469" y2="11.2969" gradientUnits="userSpaceOnUse">
<stop stop-color="#FFE3A7"/>
<stop offset="1" stop-color="#E3A405"/>
</linearGradient>
<clipPath id="clip0_71_1344">
<rect width="24" height="24" fill="white"/>
</clipPath>
</defs>
</svg>
