<svg width="38" height="38" viewBox="0 0 38 38" fill="none" xmlns="http://www.w3.org/2000/svg">
<circle cx="18.625" cy="19" r="18.5" fill="url(#paint0_linear_115_1274)"/>
<g clip-path="url(#clip0_115_1274)">
<path d="M11.0144 18.7703H12.9895L12.3669 26.9464C12.3237 27.4899 12.1091 27.8905 11.7228 28.1481C11.3076 28.4199 10.8138 28.556 10.2415 28.556H9.125V26.7532H9.66191C10.0767 26.7532 10.2914 26.5454 10.3059 26.1308L11.0144 18.7703ZM17.047 9.5H19.2581V10.8092C19.2581 12.1257 18.5497 12.7835 17.1327 12.7835H15.4798V14.9937H19.9453V17.1612H15.4798V29.5005H13.4402V17.1612H9.21078V14.9937H13.4402V12.7835H9.83346V10.723H16.5963C16.8967 10.723 17.047 10.6015 17.047 10.3583V9.5ZM16.0167 18.7703H17.9919L18.8506 26.1525C18.8937 26.5531 19.0294 26.7536 19.2586 26.7536H20.1173V28.5564H18.1421C17.3978 28.5564 16.9753 28.0415 16.8754 27.0113L16.0167 18.7708V18.7703ZM21.0617 10.2726H28.125V27.3756C28.125 28.277 27.5454 28.7274 26.3858 28.7274H21.0617V10.2726ZM25.2054 26.8394C25.5916 26.8394 25.7849 26.6747 25.7849 26.3458V12.1611H23.316V26.8394H25.2054Z" fill="white"/>
</g>
<defs>
<linearGradient id="paint0_linear_115_1274" x1="18.625" y1="0.5" x2="18.625" y2="37.5" gradientUnits="userSpaceOnUse">
<stop stop-color="#FAC131"/>
<stop offset="1" stop-color="#C27800"/>
</linearGradient>
<clipPath id="clip0_115_1274">
<rect width="19" height="20" fill="white" transform="translate(9.125 9.5)"/>
</clipPath>
</defs>
</svg>
