<svg width="24" height="24" viewBox="0 0 24 24" fill="none" xmlns="http://www.w3.org/2000/svg">
<g clip-path="url(#clip0_101_263)">
<path fill-rule="evenodd" clip-rule="evenodd" d="M3.76886 0.363757C3.63868 0.138969 3.39866 0.000523659 3.13893 0.000366244C2.87967 0.000287537 2.64012 0.138694 2.51077 0.363324C2.38141 0.587954 2.38184 0.86461 2.51198 1.08881L2.80509 1.59663C4.09809 3.83525 5.36555 6.1006 6.60743 8.39267L8.03144 7.53563C6.67213 5.31754 5.34371 3.08722 4.0461 0.844579L3.76886 0.363757Z" fill="#392300"/>
<path fill-rule="evenodd" clip-rule="evenodd" d="M12.5103 13.0401C12.8278 13.5316 13.1419 14.0257 13.4612 14.5164L13.855 15.1189C14.8691 13.1253 15.9119 11.134 16.9832 9.14471L15.5138 8.2641C14.5929 9.75324 13.606 11.3217 12.5103 13.0401Z" fill="#392300"/>
<path fill-rule="evenodd" clip-rule="evenodd" d="M21.1921 1.59707L21.484 1.08969C21.6343 0.836605 21.6158 0.517566 21.4372 0.28357C21.2586 0.0496129 20.9556 -0.0523129 20.6719 0.0260794C20.4871 0.0742482 20.3296 0.195142 20.2352 0.361175L19.9472 0.850969C18.6385 3.11659 17.3696 5.24771 15.9619 7.53604L17.3885 8.39308C18.6278 6.10904 19.8957 3.84369 21.1921 1.59707Z" fill="#392300"/>
<path fill-rule="evenodd" clip-rule="evenodd" d="M0.12531 17.9986C-0.00152682 20.639 1.69552 23.023 4.23189 23.7676C6.76827 24.5122 9.48469 23.4237 10.8052 21.1338L11.5195 19.7196L10.0548 16.8201L8.20396 19.6566C7.56573 20.7417 6.26986 21.2518 5.06316 20.893C3.85646 20.5342 3.04991 19.3988 3.10831 18.1413V18.053C3.10965 17.5197 2.82768 17.0258 2.36779 16.7558C1.91893 16.4945 1.36585 16.4878 0.910807 16.7383C0.445372 16.9909 0.147033 17.4696 0.12531 17.9986Z" fill="#392300"/>
<path fill-rule="evenodd" clip-rule="evenodd" d="M13.205 21.1509C14.5338 23.4291 17.2465 24.5056 19.7759 23.7583C22.3053 23.011 23.9975 20.6332 23.8749 17.9986C23.8535 17.4697 23.5555 16.991 23.0903 16.7383C22.634 16.4865 22.0789 16.493 21.6286 16.7555C21.1412 17.0433 20.8556 17.5793 20.8885 18.1443C20.944 19.4044 20.1315 20.5394 18.9207 20.893C17.7099 21.2466 16.4143 20.7272 15.783 19.6352L12.7439 14.9852C12.3783 14.4281 12.0188 13.8595 11.6563 13.2968C11.6498 13.2882 11.6451 13.2792 11.6391 13.2702C10.5732 11.6161 9.52002 9.94872 8.47955 8.26801L7.01611 9.14823C8.26858 11.47 9.48803 13.8025 10.6745 16.1457L13.205 21.1509Z" fill="#392300"/>
<path d="M11.9997 0.000366211C10.343 0.000366211 9 1.34338 9 3.00009C9 4.6568 10.343 5.99981 11.9997 5.99981C13.6564 5.99981 14.9994 4.6568 14.9994 3.00009C14.9975 1.34417 13.6556 0.00225518 11.9997 0.000366211ZM11.9997 1.71449C11.2897 1.71449 10.7141 2.29007 10.7141 3.00009C10.7141 3.23676 10.5223 3.42861 10.2856 3.42861C10.0489 3.42861 9.85708 3.23676 9.85708 3.00009C9.8585 1.81732 10.817 0.858864 11.9997 0.857447C12.2364 0.857447 12.4282 1.0493 12.4282 1.28597C12.4282 1.52264 12.2364 1.71449 11.9997 1.71449Z" fill="#392300"/>
</g>
<defs>
<clipPath id="clip0_101_263">
<rect width="24" height="24" fill="white"/>
</clipPath>
</defs>
</svg>
