<svg width="38" height="38" viewBox="0 0 38 38" fill="none" xmlns="http://www.w3.org/2000/svg">
<circle cx="18.625" cy="19" r="18.5" fill="url(#paint0_linear_115_1275)"/>
<g clip-path="url(#clip0_115_1275)">
<path d="M17.478 10.6758V11.831H18.4251C18.6258 11.831 18.8123 11.6452 18.9848 11.2741L19.9965 9.74771H26.778L27.7683 11.2741C27.9545 11.6452 28.1483 11.831 28.3495 11.831H29.1245V13.729H27.5531C27.3232 13.729 27.1225 13.6605 26.9501 13.5227V14.616H19.3721V13.7085C19.3148 13.7224 19.2643 13.729 19.2215 13.729H17.2409V12.3055H14.2267V13.5641H16.9824V22.3112C16.9824 23.2327 16.6019 23.6932 15.8414 23.6932H14.2267V25.1786H17.3915V26.8498H14.2267V28.5H12.5046V26.8498H9.125V25.1786H12.5051V23.6932H9.66339V13.5641H12.5051V12.3055H9.125V10.6758H12.5051V9.5H14.2272V10.6758H17.478ZM11.1916 17.855H12.5051V15.2143H11.1916V17.855ZM12.5051 22.043V19.5057H11.1916V22.043H12.5051ZM14.2272 15.2143V17.855H15.4327V15.2143H14.2272ZM15.0668 22.043C15.3108 22.043 15.4327 21.8572 15.4327 21.486V19.5057H14.2272V22.043H15.0668ZM23.3338 16.0395V26.7669C23.3338 27.2209 23.1832 27.599 22.8819 27.9017C22.6234 28.1904 22.2648 28.3347 21.8056 28.3347H20.4921V26.6845H21.1812C21.4251 26.6845 21.5471 26.4368 21.5471 25.9418V24.6832H19.825V28.4996H18.0164V16.0395H23.3338ZM19.8245 19.6705H21.5466V17.6696H19.8245V19.6705ZM19.8245 23.1363H21.5466V21.2383H19.8245V23.1363ZM20.3196 12.8833H26.4554L25.5083 11.4804H21.2672L20.3201 12.8833H20.3196ZM24.1088 16.4315H25.9174V25.0342H24.1088V16.4315ZM26.8645 15.4621H28.8451V26.6845C28.8451 27.1659 28.6872 27.5645 28.3713 27.8812C28.0987 28.1834 27.7183 28.3352 27.2304 28.3352H24.9699V26.6849H26.5414C26.7566 26.6849 26.8645 26.4097 26.8645 25.8598V15.4625V15.4621Z" fill="white"/>
</g>
<defs>
<linearGradient id="paint0_linear_115_1275" x1="0.125" y1="5.78571" x2="37.4862" y2="6.35781" gradientUnits="userSpaceOnUse">
<stop stop-color="#EF7777"/>
<stop offset="1" stop-color="#FF4646"/>
</linearGradient>
<clipPath id="clip0_115_1275">
<rect width="20" height="19" fill="white" transform="translate(9.125 9.5)"/>
</clipPath>
</defs>
</svg>
