<svg width="24" height="24" viewBox="0 0 24 24" fill="none" xmlns="http://www.w3.org/2000/svg">
<path fill-rule="evenodd" clip-rule="evenodd" d="M8.34015 16.3652L8.91938 16.3503C8.98365 16.349 9.04704 16.3351 9.1059 16.3092C9.16476 16.2834 9.21793 16.2462 9.26236 16.1997C9.30678 16.1533 9.34159 16.0985 9.36478 16.0385C9.38796 15.9786 9.39907 15.9146 9.39746 15.8504C9.39585 15.7861 9.38156 15.7228 9.3554 15.6641C9.32924 15.6054 9.29174 15.5524 9.24504 15.5082C9.19834 15.464 9.14337 15.4295 9.08329 15.4067C9.02322 15.3838 8.95921 15.373 8.89496 15.375L7.10437 15.4184C6.97504 15.4219 6.85238 15.4765 6.76335 15.5704C6.67433 15.6643 6.62622 15.7896 6.6296 15.919L6.66895 17.5468C6.67021 17.6111 6.68418 17.6746 6.71005 17.7335C6.73592 17.7925 6.77319 17.8457 6.81972 17.8902C6.86624 17.9347 6.9211 17.9696 6.98114 17.9928C7.04118 18.016 7.10522 18.0272 7.16957 18.0256C7.23393 18.024 7.29733 18.0096 7.35614 17.9834C7.41494 17.9572 7.46799 17.9197 7.51223 17.8729C7.55647 17.8262 7.59103 17.7711 7.61393 17.7109C7.63682 17.6508 7.6476 17.5867 7.64563 17.5223L7.63342 17.0462C8.78544 18.0427 10.2437 18.6152 11.766 18.6684C13.2883 18.7216 14.783 18.2525 16.0019 17.3388C17.2207 16.4252 18.0902 15.1221 18.4661 13.6459C18.842 12.1698 18.7015 10.6095 18.0681 9.22421C17.4347 7.83893 16.3464 6.71204 14.984 6.03074C13.6216 5.34944 12.0671 5.15472 10.5788 5.47895C9.09049 5.80317 7.75787 6.62682 6.80233 7.81306C5.84679 8.99931 5.32583 10.4768 5.326 12C5.32642 12.1292 5.37805 12.2531 5.46959 12.3443C5.56113 12.4355 5.6851 12.4868 5.81435 12.4868C5.94359 12.4868 6.06757 12.4355 6.15911 12.3443C6.25064 12.2531 6.30228 12.1292 6.30269 12C6.30222 10.7028 6.74431 9.44417 7.55592 8.43218C8.36752 7.42019 9.50008 6.71535 10.7665 6.43411C12.0329 6.15288 13.3573 6.31208 14.521 6.88542C15.6846 7.45875 16.6179 8.41191 17.1666 9.58741C17.7152 10.7629 17.8465 12.0904 17.5386 13.3506C17.2307 14.6108 16.5021 15.7282 15.4732 16.5183C14.4444 17.3084 13.1767 17.7238 11.8798 17.696C10.5828 17.6682 9.3342 17.1987 8.34015 16.3652ZM11.5117 8.90718V12C11.5116 12.0641 11.5242 12.1277 11.5487 12.1869C11.5733 12.2462 11.6092 12.3001 11.6546 12.3454C11.6999 12.3908 11.7538 12.4267 11.8131 12.4513C11.8723 12.4758 11.9359 12.4884 12 12.4883H15.2746C15.4041 12.4883 15.5283 12.4369 15.6199 12.3453C15.7115 12.2537 15.763 12.1295 15.763 12C15.763 11.8705 15.7115 11.7463 15.6199 11.6547C15.5283 11.5631 15.4041 11.5117 15.2746 11.5117H12.4883V8.90716C12.4883 8.77765 12.4369 8.65344 12.3453 8.56186C12.2537 8.47028 12.1295 8.41883 12 8.41883C11.8705 8.41883 11.7463 8.47028 11.6547 8.56186C11.5631 8.65344 11.5117 8.77767 11.5117 8.90718ZM12 1.5C9.9233 1.5 7.89323 2.11581 6.16652 3.26957C4.4398 4.42332 3.09399 6.0632 2.29927 7.98182C1.50455 9.90045 1.29661 12.0116 1.70176 14.0484C2.1069 16.0852 3.10693 17.9562 4.57538 19.4246C6.04384 20.8931 7.91476 21.8931 9.95156 22.2982C11.9884 22.7034 14.0996 22.4955 16.0182 21.7007C17.9368 20.906 19.5767 19.5602 20.7304 17.8335C21.8842 16.1068 22.5 14.0767 22.5 12C22.4969 9.21618 21.3896 6.54728 19.4212 4.57883C17.4527 2.61037 14.7838 1.50312 12 1.5Z" fill="#392300"/>
</svg>
