<svg width="36" height="77" viewBox="0 0 36 77" fill="none" xmlns="http://www.w3.org/2000/svg">
<g clip-path="url(#clip0_71_1303)">
<path d="M34.2446 74.9119C34.4796 73.732 34.6036 72.6108 34.608 71.583C34.621 70.5096 34.5079 69.5427 34.262 68.6757C34.1424 68.2368 33.9857 67.8305 33.7921 67.4546C33.5963 67.0787 33.3744 66.7158 33.1024 66.3964C32.8261 66.0813 32.5237 65.7706 32.1669 65.5055C31.8035 65.2448 31.4097 64.9905 30.955 64.7754C30.3154 65.8792 29.9194 66.9353 29.7606 67.95C29.6844 68.4519 29.6714 68.9408 29.7105 69.4167C29.754 69.8904 29.8432 70.3662 30.0042 70.8008C30.4415 72.0784 31.3532 73.1996 32.602 74.0797C32.2648 73.8971 31.8905 73.6929 31.4772 73.4604C30.6678 72.9954 29.7214 72.4239 28.6836 71.7308L28.6618 71.5809L28.6401 71.4244C28.577 70.9572 28.4987 70.3749 28.4443 69.7882C28.3942 69.2624 28.3486 68.6714 28.3137 68.1412C28.6988 68.0087 28.9751 67.6458 28.9751 67.2177C28.9751 66.6767 28.5378 66.2399 27.9961 66.2399C27.4543 66.2399 27.017 66.6767 27.017 67.2177C27.017 67.6827 27.3434 68.0717 27.7785 68.1716C27.8133 68.7061 27.8612 69.3059 27.9091 69.8382C27.9569 70.3684 28.0244 70.8899 28.0831 71.331C27.2433 70.753 26.3535 70.0968 25.431 69.3624C25.6638 68.843 25.8661 68.3302 26.0402 67.8283C26.2273 67.2938 26.3817 66.7723 26.5014 66.2638C26.6211 65.7576 26.7037 65.2665 26.7516 64.795C26.8017 64.3191 26.8191 63.8541 26.7951 63.4152C26.695 61.6443 25.9967 60.1972 24.4476 58.9739C23.6012 59.893 23.0073 60.8121 22.6439 61.7443C22.4655 62.2071 22.335 62.683 22.2784 63.1414C22.2197 63.6021 22.2175 64.0649 22.2676 64.5234C22.4177 65.8206 23.0334 67.0787 24.019 68.1847C23.9994 68.1694 23.982 68.1521 23.9624 68.1369C22.9333 67.2416 21.8803 66.2443 20.8338 65.1492L20.8512 64.9145C20.886 64.393 20.9709 63.6673 21.0318 63.1675C21.1079 62.5395 21.1884 61.9572 21.2646 61.5161C21.7149 61.4575 22.063 61.0902 22.063 60.6383C22.063 60.1472 21.6518 59.7496 21.1427 59.7496C20.6336 59.7496 20.2224 60.1472 20.2224 60.6383C20.2224 60.9881 20.4335 61.288 20.7381 61.4336C20.6619 61.8833 20.5792 62.47 20.5031 63.1045C20.4248 63.752 20.3725 64.2431 20.3399 64.6212C19.6154 63.8389 18.8974 63.0111 18.1925 62.1354C18.8757 61.2163 19.437 60.3015 19.8613 59.4171C20.0767 58.963 20.2638 58.5089 20.4139 58.0634C20.5618 57.618 20.6728 57.1834 20.7381 56.7597C21.0209 55.041 20.6554 53.5069 19.4283 52.012C18.9279 52.364 18.4862 52.729 18.099 53.1093C17.7161 53.4874 17.3941 53.8785 17.1243 54.2848C16.5869 55.0975 16.2671 55.971 16.1866 56.8618C16.0582 58.1004 16.3584 59.3954 17.0242 60.6274C16.4781 59.8908 15.9429 59.126 15.4272 58.3307C15.1836 57.957 14.9464 57.5745 14.7115 57.1878C14.7376 57.0987 14.768 57.0009 14.8007 56.8944C14.966 56.3729 15.1618 55.7797 15.3402 55.2669C15.5099 54.7628 15.7079 54.2566 15.8689 53.8481L15.9364 53.6808C15.9472 53.6808 15.9581 53.6829 15.969 53.6829C16.4106 53.6829 16.7696 53.3244 16.7696 52.8833C16.7696 52.4422 16.4106 52.0837 15.969 52.0837C15.5273 52.0837 15.1683 52.4422 15.1683 52.8833C15.1683 53.1223 15.275 53.3353 15.4425 53.4809L15.3729 53.6525C15.2119 54.0653 15.0095 54.5781 14.8355 55.0931C14.6745 55.5581 14.5004 56.0861 14.3438 56.5728C13.7955 55.6407 13.2755 54.6781 12.7838 53.6894C13.6236 52.9572 14.3459 52.2032 14.9312 51.4492C15.5491 50.6626 16.0212 49.8739 16.3214 49.0895C16.948 47.5055 16.9198 45.9584 16.0538 44.2701C14.953 44.735 14.0588 45.3022 13.3865 45.9671C12.7098 46.632 12.2181 47.4012 11.9592 48.2355C11.5828 49.3741 11.5981 50.6474 11.9592 51.9403C11.4284 50.7495 10.941 49.5284 10.5059 48.2812C10.5581 48.1856 10.6212 48.0726 10.6952 47.9465C10.9606 47.4816 11.2674 46.9601 11.5393 46.5146C11.7895 46.0974 12.0658 45.6781 12.2899 45.3413L12.4183 45.1501C12.4814 45.1674 12.5488 45.1783 12.6163 45.1783C13.0579 45.1783 13.4169 44.8198 13.4169 44.3787C13.4169 43.9376 13.0579 43.5791 12.6163 43.5791C12.1746 43.5791 11.8156 43.9376 11.8156 44.3787C11.8156 44.5569 11.8766 44.7198 11.9745 44.8524L11.8439 45.0458C11.6176 45.3869 11.3348 45.8128 11.0803 46.2387C10.8214 46.6624 10.532 47.1556 10.2753 47.6032C9.95761 46.645 9.66825 45.6737 9.41587 44.6938C9.39629 44.6155 9.37671 44.5373 9.35713 44.4591C10.3057 43.9333 11.1499 43.3661 11.8591 42.7664C12.6054 42.1428 13.2255 41.4823 13.6693 40.7956C14.5961 39.405 14.8746 37.9144 14.3851 36.1153C13.2429 36.3391 12.2878 36.7019 11.5023 37.2039C11.1085 37.4538 10.7583 37.7384 10.4493 38.0535C10.1491 38.3685 9.89452 38.7118 9.67913 39.0856C9.23529 39.8331 9.0112 40.6826 8.92417 41.6083C8.90459 41.9255 8.90676 42.2515 8.92417 42.5839C8.66527 41.3432 8.4564 40.0938 8.29975 38.8466L8.59782 38.4989C8.90894 38.1512 9.30709 37.7188 9.69001 37.3125L10.2774 36.7019C10.4384 36.539 10.5929 36.3891 10.73 36.2543L10.7822 36.2044C10.891 36.2587 11.0106 36.2913 11.139 36.2913C11.5807 36.2913 11.9396 35.9327 11.9396 35.4917C11.9396 35.0506 11.5807 34.692 11.139 34.692C10.6973 34.692 10.3384 35.0506 10.3384 35.4917C10.3384 35.609 10.3645 35.7198 10.4123 35.8219L10.3579 35.8741C10.2187 36.011 10.0599 36.1631 9.89452 36.3326L9.30491 36.9475C8.92417 37.3495 8.53037 37.7775 8.2149 38.1295C8.09524 37.0496 8.01474 35.974 7.97123 34.905C8.97421 34.5943 9.89452 34.2205 10.6908 33.7903C11.1085 33.5665 11.4871 33.3253 11.8439 33.0711C12.2051 32.8169 12.5314 32.5452 12.8186 32.2584C13.3952 31.6848 13.7977 31.046 14.0936 30.3311C14.2328 29.9726 14.3264 29.5923 14.372 29.1882C14.4243 28.784 14.4569 28.3603 14.4243 27.9018C12.1616 27.8823 10.4341 28.5624 9.33972 29.8292C9.06124 30.1442 8.81103 30.4919 8.60652 30.8721C8.41289 31.2524 8.25624 31.6609 8.13005 32.0955C8.06696 32.3127 8.01256 32.5344 7.96687 32.7625C7.95382 32.8234 7.94512 32.8842 7.93424 32.945C7.93424 31.8956 7.97123 30.8569 8.04302 29.8357C8.05825 29.6314 8.07131 29.4293 8.08654 29.2273L8.51732 28.8948C8.79363 28.6775 9.1983 28.3972 9.58775 28.1256L9.78138 27.9909C10.1708 27.7236 10.6125 27.426 11.0063 27.1674C11.1412 27.2717 11.3087 27.3369 11.4936 27.3369C11.9353 27.3369 12.2943 26.9783 12.2943 26.5373C12.2943 26.0962 11.9353 25.7376 11.4936 25.7376C11.052 25.7376 10.693 26.0962 10.693 26.5373C10.693 26.6003 10.7017 26.6611 10.7169 26.7198C10.4624 26.8849 10.0033 27.1891 9.47679 27.552L9.28315 27.6867C8.88718 27.9627 8.47598 28.2473 8.18879 28.4733L8.13875 28.5124C8.15181 28.3625 8.16704 28.2104 8.18879 28.0626C8.26059 27.4781 8.33021 26.9001 8.39983 26.3287C8.42812 26.0418 8.49121 25.7615 8.53473 25.4812C8.53473 25.4725 8.5369 25.4639 8.53908 25.4552C9.55729 25.353 10.4994 25.1749 11.3413 24.9185C11.783 24.7859 12.1855 24.6273 12.5793 24.4535C12.9731 24.2796 13.3364 24.0841 13.6671 23.8646C13.9978 23.6452 14.2937 23.404 14.5526 23.1367C14.6179 23.0694 14.6788 23.002 14.7419 22.9325C14.8072 22.8629 14.8681 22.7934 14.929 22.7217C15.0487 22.5783 15.1596 22.4262 15.2619 22.2676C15.4642 21.9503 15.6274 21.6048 15.7492 21.2268C15.8841 20.853 15.9929 20.4489 16.0517 20.0034C13.8978 19.5493 12.1094 19.8665 10.8192 20.8661C10.4928 21.1138 10.1904 21.3984 9.9141 21.72C9.65737 22.0459 9.42457 22.4066 9.22224 22.7956C9.11998 22.9911 9.02425 23.1932 8.93722 23.4018C8.92199 23.4366 8.90894 23.4713 8.89589 23.5061C8.93287 23.3388 8.97203 23.1715 9.00902 23.0042C9.13303 22.4696 9.24182 21.9395 9.37236 21.4223C9.5116 20.9226 9.64649 20.4315 9.78138 19.9491L10.3275 19.6819C10.767 19.4819 11.2739 19.2581 11.7177 19.0691C12.1333 18.8931 12.6011 18.6997 13.0166 18.5346C13.1645 18.7062 13.3799 18.8192 13.6236 18.8192C14.0653 18.8192 14.4243 18.4607 14.4243 18.0196C14.4243 17.5785 14.0653 17.22 13.6236 17.22C13.182 17.22 12.823 17.5785 12.823 18.0196C12.823 18.0261 12.823 18.0305 12.823 18.037C12.4031 18.2043 11.9266 18.3999 11.5045 18.5802C11.0563 18.7714 10.545 18.9952 10.0969 19.2016L9.97937 19.2581C10.0642 18.9865 10.1556 18.7171 10.2426 18.452C10.4014 17.9805 10.5472 17.5112 10.7104 17.0614C10.7822 16.8658 10.854 16.6746 10.9258 16.4856C12.9535 16.6876 14.7093 16.5138 16.1213 15.951C16.4781 15.8055 16.8088 15.6294 17.1069 15.423C17.4071 15.2166 17.703 14.9906 17.9532 14.7234C18.2078 14.4583 18.4297 14.1562 18.6168 13.8151C18.8256 13.4848 18.9997 13.1133 19.1411 12.6982C18.149 12.2789 17.2222 12.0616 16.3541 12.0377C15.9233 12.0268 15.4925 12.0551 15.1031 12.1442C14.7093 12.2311 14.3329 12.3636 13.9739 12.5375C13.6149 12.7113 13.2712 12.9286 12.947 13.1828C12.6293 13.4414 12.3465 13.7456 12.0767 14.078C11.9418 14.2475 11.8091 14.4257 11.6829 14.6125C12.4292 12.8786 13.195 11.3793 13.8912 10.1364C15.573 10.5645 17.0829 10.634 18.3557 10.3168C18.6777 10.232 18.9801 10.1212 19.2608 9.97781C19.4022 9.90611 19.5349 9.82571 19.6698 9.74097C19.8069 9.6584 19.9374 9.56714 20.0636 9.46719C20.3138 9.26728 20.5444 9.03479 20.7489 8.76318C20.8512 8.62846 20.9491 8.48288 21.0405 8.3286C21.1406 8.17868 21.2341 8.02006 21.3211 7.85057C20.527 7.3921 19.7525 7.1031 19.0236 6.99446C18.2991 6.88799 17.6073 6.951 16.9546 7.16395C16.6304 7.27259 16.304 7.40731 16.0125 7.59417C15.7188 7.77887 15.4381 7.99833 15.1683 8.24821C15.0182 8.38944 14.8703 8.53937 14.7267 8.70016C15.0182 8.23517 15.2815 7.82015 15.5099 7.45728C15.734 7.08355 15.9625 6.79239 16.1278 6.5425C16.1387 6.52512 16.1496 6.51208 16.1604 6.49687C16.4085 6.41865 16.6478 6.33391 16.8762 6.24482C17.2766 6.09272 17.6334 5.90803 17.9924 5.73202C18.3448 5.5495 18.669 5.34743 18.9605 5.12362C19.1063 5.0128 19.2434 4.89547 19.3739 4.77162C19.4392 4.71077 19.5023 4.64776 19.5632 4.58258C19.6263 4.51956 19.6894 4.45655 19.7503 4.39136C20.2355 3.87639 20.5749 3.25061 20.799 2.52704C21.0339 1.81434 21.1297 0.979957 21.0775 0.00651077C20.1245 -0.0130451 19.2717 0.158612 18.5341 0.478024C17.8074 0.8083 17.2156 1.30806 16.737 1.9056C16.6783 1.98165 16.6195 2.0577 16.5651 2.13592C16.5129 2.21632 16.4629 2.29889 16.4128 2.38363C16.3149 2.55311 16.2257 2.72694 16.1452 2.90729C15.982 3.26799 15.8493 3.65041 15.7514 4.04805C15.6448 4.44134 15.6035 4.87809 15.5774 5.31483C15.5643 5.56906 15.5643 5.82546 15.573 6.0862C15.5621 6.10141 15.5513 6.11662 15.5404 6.13401C15.3685 6.38606 15.1357 6.68157 14.9029 7.05747C14.6636 7.42904 14.3895 7.85709 14.0827 8.33512C13.6563 9.0261 13.1798 9.83875 12.6816 10.76C12.7033 10.6992 12.7229 10.6362 12.7446 10.5754C12.8208 10.3646 12.8882 10.1538 12.9448 9.94305C13.1776 9.09997 13.2516 8.24386 13.2189 7.42252C13.1754 6.59465 12.9622 5.7581 12.5836 4.94762C12.2116 4.14366 11.6546 3.35056 10.8779 2.59657C10.0795 3.4114 9.57687 4.31097 9.26575 5.19098C9.1896 5.41261 9.12216 5.6299 9.07429 5.85153C9.03078 6.07534 9.00032 6.29914 8.98291 6.52078C8.94593 6.96404 8.96116 7.40296 9.02207 7.83319C9.13521 8.68713 9.47897 9.5302 9.97284 10.3146C10.4493 11.0686 11.0737 11.7748 11.82 12.431C11.4088 13.2697 10.9911 14.1801 10.5842 15.1536L10.2122 14.3605L9.89234 13.6022C9.6813 13.0959 9.47679 12.5744 9.32232 12.1746C9.40934 12.1007 9.48332 12.0116 9.53336 11.9008C9.71176 11.5053 9.56164 11.0403 9.15914 10.8426C8.76535 10.6492 8.26277 10.8078 8.07783 11.2185C7.8929 11.6292 8.07131 12.1072 8.47598 12.2897C8.58694 12.3397 8.70443 12.3593 8.81974 12.3593C8.97639 12.7634 9.18525 13.2936 9.40064 13.8086L9.72482 14.5756L10.3101 15.825C10.1839 16.1379 10.0599 16.4551 9.93803 16.7832C9.76615 17.2395 9.61603 17.7154 9.44851 18.1934C9.30926 18.6019 9.16349 19.0148 9.04166 19.4407C9.05036 19.3668 9.06124 19.2907 9.06994 19.2169C9.09387 18.9865 9.12651 18.7627 9.14174 18.5389C9.17437 18.0913 9.17002 17.648 9.12868 17.2135C9.1091 16.9962 9.07429 16.7789 9.03948 16.5681C9.00685 16.3574 8.96551 16.1488 8.91329 15.9423C8.70443 15.1145 8.33239 14.3192 7.77977 13.5739C7.24455 12.8351 6.52658 12.1463 5.59539 11.5423C5.43875 11.79 5.29515 12.0377 5.16896 12.2832C5.0406 12.5288 4.94487 12.783 4.85349 13.0285C4.67509 13.5239 4.55325 14.0128 4.48363 14.4887C4.4053 14.9624 4.42053 15.4382 4.4684 15.8924C4.52061 16.3487 4.62069 16.7876 4.76646 17.2091C4.84044 17.4199 4.92529 17.6263 5.02102 17.8262C5.12327 18.0283 5.23858 18.2282 5.3626 18.4216C5.61062 18.8084 5.90216 19.1756 6.23069 19.5211C6.86381 20.186 7.63835 20.7726 8.52385 21.2811C8.39331 21.7852 8.28235 22.3023 8.15616 22.8238C8.09306 23.0954 8.02779 23.3692 7.9647 23.6452C7.92119 23.882 7.87767 24.1189 7.83416 24.3579L7.61659 24.0667C7.38815 23.7582 7.10531 23.3757 6.85076 22.9955C6.53964 22.537 6.23287 22.0611 5.99572 21.6918C6.07404 21.5962 6.13278 21.4853 6.16324 21.3593C6.21546 21.1377 6.16977 20.9139 6.05664 20.7292C5.95003 20.5467 5.77162 20.4032 5.54753 20.3446C5.32344 20.2859 5.09281 20.3228 4.90353 20.4337C4.72077 20.5467 4.58153 20.7313 4.52932 20.9617C4.42271 21.4223 4.70554 21.8786 5.15808 21.9786C5.2908 22.009 5.42134 22.0025 5.54318 21.9721C5.7825 22.3458 6.09362 22.826 6.40692 23.291C6.668 23.6799 6.95519 24.0689 7.18798 24.3818L7.70579 25.0727C7.69056 25.1618 7.67316 25.2487 7.65793 25.3378C7.61007 25.6247 7.54479 25.9093 7.51216 26.2026C7.43601 26.785 7.35986 27.3738 7.28154 27.967C7.23585 28.2647 7.21409 28.5645 7.19016 28.8666C7.19016 28.8905 7.18581 28.9166 7.18363 28.9405C7.1597 28.5971 7.11836 28.2582 7.08355 27.9322C7.02481 27.4738 6.93126 27.0305 6.80071 26.6024C6.67018 26.1744 6.4983 25.7594 6.31554 25.3661C5.93915 24.5773 5.40394 23.8516 4.69684 23.2149C3.99193 22.5783 3.14341 22.0329 2.07951 21.6114C1.9729 21.8938 1.875 22.172 1.79885 22.4457C1.7314 22.7217 1.67701 22.9955 1.63785 23.2627C1.55735 23.7994 1.53342 24.3166 1.55953 24.812C1.56823 25.0597 1.60957 25.3031 1.65743 25.5399C1.7053 25.7768 1.76622 26.0071 1.83801 26.2309C1.98161 26.6785 2.17307 27.1022 2.40586 27.4955C2.63213 27.8888 2.93237 28.256 3.2609 28.595C3.58943 28.9339 3.95711 29.2425 4.35744 29.5206C5.13633 30.0638 6.0327 30.4919 7.04439 30.8222C6.98347 31.9129 6.96172 33.0211 6.97912 34.1401C6.64624 33.8424 6.20023 33.4383 5.75857 33.0189C5.34954 32.6213 4.94052 32.2085 4.62505 31.8847C4.68814 31.7695 4.7273 31.6435 4.72948 31.5044C4.74253 31.0351 4.36397 30.6331 3.88314 30.6092C3.40449 30.5831 3.00417 30.959 2.99112 31.4479C2.97806 31.9368 3.35881 32.3367 3.83745 32.3432C3.98105 32.3432 4.11376 32.3106 4.2356 32.2519C4.55542 32.58 4.97098 32.9994 5.38653 33.4035C6.03488 34.0163 6.68976 34.5986 6.99435 34.868C7.03569 36.1848 7.13359 37.5146 7.28589 38.8466C6.94649 37.5103 6.41997 36.3304 5.65196 35.333C5.36477 34.9745 5.06888 34.6421 4.72513 34.3357C4.38355 34.0293 4.0028 33.7512 3.58508 33.5035C3.37621 33.3796 3.15647 33.2645 2.92802 33.1558C2.70393 33.0472 2.46896 32.9494 2.22311 32.8581C1.73358 32.6778 1.20054 32.5322 0.626164 32.4301C0.578299 32.7365 0.530434 33.0341 0.519556 33.3275C0.506502 33.6208 0.506502 33.9055 0.519556 34.1836C0.545664 34.7398 0.619637 35.2657 0.767583 35.7567C0.909001 36.2478 1.09393 36.7063 1.32455 37.13C1.56823 37.5515 1.85107 37.9361 2.17089 38.286C2.80183 38.9835 3.62641 39.5267 4.54237 39.9221C5.00361 40.1199 5.48879 40.2828 6.00442 40.4089C6.49395 40.5262 7.00523 40.6131 7.53174 40.6718C7.70144 41.7778 7.90813 42.8816 8.15616 43.9767C7.72538 43.7312 7.23367 43.4465 6.75938 43.1445C6.31337 42.8642 5.80643 42.5383 5.35825 42.2406C5.39958 42.1102 5.41481 41.969 5.39306 41.8256C5.31256 41.3475 4.85349 41.0194 4.36397 41.0933C3.87444 41.1672 3.54374 41.6344 3.62641 42.1341C3.70256 42.6339 4.18774 42.9576 4.67291 42.862C4.82086 42.8338 4.94922 42.7664 5.058 42.6817C5.51054 42.9815 6.024 43.3118 6.47436 43.5943C6.9813 43.918 7.50563 44.2179 7.95817 44.4765L8.32586 44.6829C8.34762 44.7763 8.36937 44.8676 8.39113 44.961C8.70443 46.2169 9.06994 47.4598 9.48549 48.681C8.85672 47.3946 8.07348 46.306 7.0705 45.4586C6.37864 44.8546 5.54535 44.3787 4.61199 44.0528C3.67863 43.7268 2.61255 43.5574 1.41376 43.5921C1.4725 44.8676 1.78797 45.9844 2.26444 46.921C2.51465 47.3859 2.80401 47.8075 3.12601 48.1834C3.44148 48.5615 3.82657 48.8831 4.22037 49.1677C4.62069 49.448 5.0406 49.687 5.49966 49.8739C5.96091 50.0608 6.44608 50.2042 6.95084 50.3041C7.45559 50.4041 7.97993 50.4606 8.52167 50.4779C9.03513 50.4932 9.57252 50.4671 10.1164 50.4106C10.5233 51.4688 10.9649 52.5052 11.4392 53.52C11.0063 53.3831 10.4537 53.2071 9.91628 53.0072C9.40282 52.8225 8.82191 52.603 8.31063 52.4031C8.32586 52.2597 8.31063 52.1098 8.25624 51.9664C8.07131 51.5014 7.53392 51.271 7.05744 51.4514C6.58097 51.6317 6.35035 52.175 6.54399 52.6595C6.73327 53.1484 7.28807 53.37 7.75583 53.168C7.9016 53.1049 8.01692 53.0093 8.11047 52.8942C8.63045 53.0984 9.22006 53.3201 9.73569 53.5048C10.3427 53.7307 10.9671 53.9263 11.424 54.0697L11.7547 54.1718C12.4009 55.5016 13.0993 56.788 13.8412 58.0156C12.9187 56.8445 11.8853 55.9058 10.6778 55.2669C9.85318 54.8106 8.91764 54.5151 7.91031 54.3891C6.90515 54.2653 5.79991 54.3239 4.60546 54.6173C5.29515 57.1573 6.79201 58.8348 8.63916 59.604C9.54859 60.0016 10.5733 60.1646 11.622 60.1472C12.6424 60.132 13.7259 59.9191 14.8181 59.5584C15.4534 60.521 16.1126 61.4422 16.787 62.3223C16.204 62.2679 15.6862 62.2114 15.2184 62.1549C14.6658 62.0811 14.037 61.9876 13.4735 61.8964C13.4561 61.7464 13.4082 61.5987 13.3168 61.4661C13.0297 61.0359 12.4401 60.9208 12.0006 61.2098C11.5611 61.4987 11.4458 62.0941 11.746 62.5417C12.0484 62.9872 12.6576 63.0893 13.0819 62.7851C13.2168 62.6873 13.3147 62.5613 13.3821 62.4222C13.9478 62.5135 14.5853 62.6091 15.1466 62.683C15.684 62.7503 16.2779 62.8133 16.9654 62.8742L17.2309 62.8959C18.2252 64.1518 19.2499 65.3208 20.279 66.3942C19.0671 65.3904 17.7922 64.6581 16.4215 64.2626C15.9451 64.1344 15.4708 64.0388 14.9769 63.991C14.483 63.9432 13.9761 63.9432 13.4539 63.9954C12.4161 64.0953 11.3326 64.3887 10.2013 64.9449C11.4523 67.3394 13.3299 68.6844 15.338 69.0603C16.3519 69.245 17.3962 69.1972 18.4427 68.9473C19.4762 68.6931 20.5053 68.2477 21.5191 67.6436C22.0543 68.1629 22.5896 68.6583 23.1182 69.1255C23.4337 69.4036 23.747 69.6709 24.056 69.9316C23.5969 69.9903 23.0508 70.0446 22.5178 70.0968L22.3763 70.1098C22.087 70.1359 21.7889 70.1641 21.5191 70.1815L20.712 70.2293C20.6619 70.0794 20.5792 69.9382 20.4552 69.823C20.0592 69.4688 19.4544 69.4688 19.0737 69.8578C18.6995 70.2402 18.7038 70.8812 19.1194 71.2528C19.5284 71.6287 20.155 71.6069 20.514 71.2028C20.6293 71.0724 20.7011 70.9203 20.7381 70.7617L21.5539 70.7139C21.8346 70.6965 22.137 70.6683 22.4286 70.64L22.57 70.627C23.2314 70.5618 23.9167 70.4922 24.4367 70.4184L24.6173 70.3923C26.0141 71.5265 27.339 72.4761 28.5313 73.2583C27.0758 72.5108 25.6268 72.048 24.143 71.9655C23.6448 71.935 23.1422 71.9524 22.6352 72.0198C22.1348 72.0806 21.6301 72.1893 21.121 72.3522C20.1049 72.6825 19.0758 73.2279 18.0772 74.0253C19.8634 76.1482 22.0543 77.0695 24.1495 76.9957C24.676 76.9761 25.196 76.8979 25.7073 76.7675C26.2251 76.6263 26.732 76.4329 27.2281 76.1873C27.7241 75.9418 28.2071 75.6485 28.6793 75.3095C29.1318 74.9814 29.5778 74.6033 30.0064 74.1926C30.2827 74.3621 30.5503 74.5208 30.8027 74.6685C31.797 75.2356 32.5889 75.668 33.1394 75.9375C33.6876 76.2156 33.9792 76.3633 33.9792 76.3633L35.5239 75.5116C35.5239 75.5116 34.8364 75.1878 34.2686 74.914L34.2446 74.9119Z" fill="url(#paint0_linear_71_1303)"/>
</g>
<defs>
<linearGradient id="paint0_linear_71_1303" x1="18.0011" y1="77" x2="18.0011" y2="-6.91453e-06" gradientUnits="userSpaceOnUse">
<stop stop-color="#A57426"/>
<stop offset="0.14" stop-color="#C2994A"/>
<stop offset="0.3" stop-color="#DEBC6C"/>
<stop offset="0.44" stop-color="#EFD282"/>
<stop offset="0.52" stop-color="#F6DB8A"/>
<stop offset="0.63" stop-color="#F1D585"/>
<stop offset="0.76" stop-color="#E6C778"/>
<stop offset="0.9" stop-color="#D2AE62"/>
<stop offset="1" stop-color="#C29A50"/>
</linearGradient>
<clipPath id="clip0_71_1303">
<rect width="35" height="77" fill="white" transform="translate(0.5)"/>
</clipPath>
</defs>
</svg>
