<svg width="36" height="77" viewBox="0 0 36 77" fill="none" xmlns="http://www.w3.org/2000/svg">
<g clip-path="url(#clip0_71_1307)">
<path d="M1.75538 74.9119C1.52041 73.732 1.3964 72.6108 1.39204 71.583C1.37899 70.5096 1.49213 69.5427 1.73798 68.6757C1.85764 68.2368 2.01429 67.8305 2.20792 67.4546C2.40373 67.0787 2.62565 66.7158 2.89761 66.3964C3.17392 66.0813 3.47634 65.7706 3.83315 65.5055C4.19648 65.2448 4.59028 64.9905 5.045 64.7754C5.68464 65.8792 6.08061 66.9353 6.23944 67.95C6.31559 68.4519 6.32864 68.9408 6.28948 69.4167C6.24597 69.8904 6.15676 70.3662 5.99576 70.8008C5.55845 72.0784 4.64685 73.1996 3.39801 74.0797C3.73524 73.8971 4.10946 73.6929 4.52283 73.4604C5.33218 72.9954 6.2786 72.4239 7.3164 71.7308L7.33815 71.5809L7.35991 71.4244C7.423 70.9572 7.50133 70.3749 7.55572 69.7882C7.60576 69.2624 7.65145 68.6714 7.68626 68.1412C7.30117 68.0087 7.02485 67.6458 7.02485 67.2177C7.02485 66.6767 7.46217 66.2399 8.00391 66.2399C8.54565 66.2399 8.98296 66.6767 8.98296 67.2177C8.98296 67.6827 8.65661 68.0717 8.22148 68.1716C8.18666 68.7061 8.1388 69.3059 8.09093 69.8382C8.04307 70.3684 7.97562 70.8899 7.91688 71.331C8.75669 70.753 9.64654 70.0968 10.569 69.3624C10.3362 68.843 10.1339 68.3302 9.95984 67.8283C9.77273 67.2938 9.61825 66.7723 9.49859 66.2638C9.37893 65.7576 9.29626 65.2665 9.24839 64.795C9.19835 64.3191 9.18094 63.8541 9.20488 63.4152C9.30496 61.6443 10.0033 60.1972 11.5524 58.9739C12.3988 59.893 12.9927 60.8121 13.3561 61.7443C13.5345 62.2071 13.665 62.683 13.7216 63.1414C13.7803 63.6021 13.7825 64.0649 13.7324 64.5234C13.5823 65.8206 12.9666 67.0787 11.981 68.1847C12.0006 68.1694 12.018 68.1521 12.0376 68.1369C13.0667 67.2416 14.1197 66.2443 15.1662 65.1492L15.1488 64.9145C15.114 64.393 15.0291 63.6673 14.9682 63.1675C14.8921 62.5395 14.8116 61.9572 14.7354 61.5161C14.2851 61.4575 13.937 61.0902 13.937 60.6383C13.937 60.1472 14.3482 59.7496 14.8573 59.7496C15.3664 59.7496 15.7776 60.1472 15.7776 60.6383C15.7776 60.9881 15.5665 61.288 15.2619 61.4336C15.3381 61.8833 15.4208 62.47 15.4969 63.1045C15.5752 63.752 15.6275 64.2431 15.6601 64.6212C16.3846 63.8389 17.1026 63.0111 17.8075 62.1354C17.1243 61.2163 16.563 60.3015 16.1387 59.4171C15.9233 58.963 15.7362 58.5089 15.5861 58.0634C15.4382 57.618 15.3272 57.1834 15.2619 56.7597C14.9791 55.041 15.3446 53.5069 16.5717 52.012C17.0721 52.364 17.5138 52.729 17.901 53.1093C18.2839 53.4874 18.6059 53.8785 18.8757 54.2848C19.4131 55.0975 19.7329 55.971 19.8134 56.8618C19.9418 58.1004 19.6416 59.3954 18.9758 60.6274C19.5219 59.8908 20.0571 59.126 20.5728 58.3307C20.8164 57.957 21.0536 57.5745 21.2885 57.1878C21.2624 57.0987 21.232 57.0009 21.1993 56.8944C21.034 56.3729 20.8382 55.7797 20.6598 55.2669C20.4901 54.7628 20.2921 54.2566 20.1311 53.8481L20.0636 53.6808C20.0528 53.6808 20.0419 53.6829 20.031 53.6829C19.5894 53.6829 19.2304 53.3244 19.2304 52.8833C19.2304 52.4422 19.5894 52.0837 20.031 52.0837C20.4727 52.0837 20.8317 52.4422 20.8317 52.8833C20.8317 53.1223 20.725 53.3353 20.5575 53.4809L20.6271 53.6525C20.7881 54.0653 20.9905 54.5781 21.1645 55.0931C21.3255 55.5581 21.4996 56.0861 21.6562 56.5728C22.2045 55.6407 22.7245 54.6781 23.2162 53.6894C22.3764 52.9572 21.6541 52.2032 21.0688 51.4492C20.4509 50.6626 19.9788 49.8739 19.6786 49.0895C19.052 47.5055 19.0802 45.9584 19.9462 44.2701C21.047 44.735 21.9412 45.3022 22.6135 45.9671C23.2902 46.632 23.7819 47.4012 24.0408 48.2355C24.4172 49.3741 24.4019 50.6474 24.0408 51.9403C24.5716 50.7495 25.059 49.5284 25.4941 48.2812C25.4419 48.1856 25.3788 48.0726 25.3048 47.9465C25.0394 47.4816 24.7326 46.9601 24.4607 46.5146C24.2105 46.0974 23.9342 45.6781 23.7101 45.3413L23.5817 45.1501C23.5186 45.1674 23.4512 45.1783 23.3837 45.1783C22.9421 45.1783 22.5831 44.8198 22.5831 44.3787C22.5831 43.9376 22.9421 43.5791 23.3837 43.5791C23.8254 43.5791 24.1844 43.9376 24.1844 44.3787C24.1844 44.5569 24.1234 44.7198 24.0255 44.8524L24.1561 45.0458C24.3824 45.3869 24.6652 45.8128 24.9197 46.2387C25.1786 46.6624 25.468 47.1556 25.7247 47.6032C26.0424 46.645 26.3318 45.6737 26.5841 44.6938C26.6037 44.6155 26.6233 44.5373 26.6429 44.4591C25.6943 43.9333 24.8501 43.3661 24.1409 42.7664C23.3946 42.1428 22.7745 41.4823 22.3307 40.7956C21.4039 39.405 21.1254 37.9144 21.6149 36.1153C22.7571 36.3391 23.7122 36.7019 24.4977 37.2039C24.8915 37.4538 25.2417 37.7384 25.5507 38.0535C25.8509 38.3685 26.1055 38.7118 26.3209 39.0856C26.7647 39.8331 26.9888 40.6826 27.0758 41.6083C27.0954 41.9255 27.0932 42.2515 27.0758 42.5839C27.3347 41.3432 27.5436 40.0938 27.7002 38.8466L27.4022 38.4989C27.0911 38.1512 26.6929 37.7188 26.31 37.3125L25.7226 36.7019C25.5616 36.539 25.4071 36.3891 25.27 36.2543L25.2178 36.2044C25.109 36.2587 24.9894 36.2913 24.861 36.2913C24.4193 36.2913 24.0604 35.9327 24.0604 35.4917C24.0604 35.0506 24.4193 34.692 24.861 34.692C25.3027 34.692 25.6616 35.0506 25.6616 35.4917C25.6616 35.609 25.6355 35.7198 25.5877 35.8219L25.6421 35.8741C25.7813 36.011 25.9401 36.1631 26.1055 36.3326L26.6951 36.9475C27.0758 37.3495 27.4696 37.7775 27.7851 38.1295C27.9048 37.0496 27.9853 35.974 28.0288 34.905C27.0258 34.5943 26.1055 34.2205 25.3092 33.7903C24.8915 33.5665 24.5129 33.3253 24.1561 33.0711C23.7949 32.8169 23.4686 32.5452 23.1814 32.2584C22.6048 31.6848 22.2023 31.046 21.9064 30.3311C21.7672 29.9726 21.6736 29.5923 21.628 29.1882C21.5757 28.784 21.5431 28.3603 21.5757 27.9018C23.8384 27.8823 25.5659 28.5624 26.6603 29.8292C26.9388 30.1442 27.189 30.4919 27.3935 30.8721C27.5871 31.2524 27.7438 31.6609 27.8699 32.0955C27.933 32.3127 27.9874 32.5344 28.0331 32.7625C28.0462 32.8234 28.0549 32.8842 28.0658 32.945C28.0658 31.8956 28.0288 30.8569 27.957 29.8357C27.9417 29.6314 27.9287 29.4293 27.9135 29.2273L27.4827 28.8948C27.2064 28.6775 26.8017 28.3972 26.4123 28.1256L26.2186 27.9909C25.8292 27.7236 25.3875 27.426 24.9937 27.1674C24.8588 27.2717 24.6913 27.3369 24.5064 27.3369C24.0647 27.3369 23.7057 26.9783 23.7057 26.5373C23.7057 26.0962 24.0647 25.7376 24.5064 25.7376C24.948 25.7376 25.307 26.0962 25.307 26.5373C25.307 26.6003 25.2983 26.6611 25.2831 26.7198C25.5376 26.8849 25.9967 27.1891 26.5232 27.552L26.7168 27.6867C27.1128 27.9627 27.524 28.2473 27.8112 28.4733L27.8612 28.5124C27.8482 28.3625 27.833 28.2104 27.8112 28.0626C27.7394 27.4781 27.6698 26.9001 27.6002 26.3287C27.5719 26.0418 27.5088 25.7615 27.4653 25.4812C27.4653 25.4725 27.4631 25.4639 27.4609 25.4552C26.4427 25.353 25.5006 25.1749 24.6587 24.9185C24.217 24.7859 23.8145 24.6273 23.4207 24.4535C23.0269 24.2796 22.6636 24.0841 22.3329 23.8646C22.0022 23.6452 21.7063 23.404 21.4474 23.1367C21.3821 23.0694 21.3212 23.002 21.2581 22.9325C21.1928 22.8629 21.1319 22.7934 21.071 22.7217C20.9513 22.5783 20.8404 22.4262 20.7381 22.2676C20.5358 21.9503 20.3726 21.6048 20.2508 21.2268C20.1159 20.853 20.0071 20.4489 19.9483 20.0034C22.1022 19.5493 23.8906 19.8665 25.1808 20.8661C25.5072 21.1138 25.8096 21.3984 26.0859 21.72C26.3426 22.0459 26.5754 22.4066 26.7778 22.7956C26.88 22.9911 26.9757 23.1932 27.0628 23.4018C27.078 23.4366 27.0911 23.4713 27.1041 23.5061C27.0671 23.3388 27.028 23.1715 26.991 23.0042C26.867 22.4696 26.7582 21.9395 26.6276 21.4223C26.4884 20.9226 26.3535 20.4315 26.2186 19.9491L25.6725 19.6819C25.233 19.4819 24.7261 19.2581 24.2823 19.0691C23.8667 18.8931 23.3989 18.6997 22.9834 18.5346C22.8355 18.7062 22.6201 18.8192 22.3764 18.8192C21.9347 18.8192 21.5757 18.4607 21.5757 18.0196C21.5757 17.5785 21.9347 17.22 22.3764 17.22C22.818 17.22 23.177 17.5785 23.177 18.0196C23.177 18.0261 23.177 18.0305 23.177 18.037C23.5969 18.2043 24.0734 18.3999 24.4955 18.5802C24.9437 18.7714 25.455 18.9952 25.9031 19.2016L26.0206 19.2581C25.9358 18.9865 25.8444 18.7171 25.7574 18.452C25.5986 17.9805 25.4528 17.5112 25.2896 17.0614C25.2178 16.8658 25.146 16.6746 25.0742 16.4856C23.0465 16.6876 21.2907 16.5138 19.8787 15.951C19.5219 15.8055 19.1912 15.6294 18.8931 15.423C18.5929 15.2166 18.297 14.9906 18.0468 14.7234C17.7922 14.4583 17.5703 14.1562 17.3832 13.8151C17.1744 13.4848 17.0003 13.1133 16.8589 12.6982C17.851 12.2789 18.7778 12.0616 19.6459 12.0377C20.0767 12.0268 20.5075 12.0551 20.8969 12.1442C21.2907 12.2311 21.6671 12.3636 22.0261 12.5375C22.3851 12.7113 22.7288 12.9286 23.053 13.1828C23.3707 13.4414 23.6535 13.7456 23.9233 14.078C24.0582 14.2475 24.1909 14.4257 24.3171 14.6125C23.5708 12.8786 22.805 11.3793 22.1088 10.1364C20.427 10.5645 18.9171 10.634 17.6443 10.3168C17.3223 10.232 17.0199 10.1212 16.7392 9.97781C16.5978 9.90611 16.4651 9.82571 16.3302 9.74097C16.1931 9.6584 16.0626 9.56714 15.9364 9.46719C15.6862 9.26728 15.4556 9.03479 15.2511 8.76318C15.1488 8.62846 15.0509 8.48288 14.9595 8.3286C14.8594 8.17868 14.7659 8.02006 14.6789 7.85057C15.473 7.3921 16.2475 7.1031 16.9764 6.99446C17.7009 6.88799 18.3927 6.951 19.0454 7.16395C19.3696 7.27259 19.696 7.40731 19.9875 7.59417C20.2812 7.77887 20.5619 7.99833 20.8317 8.24821C20.9818 8.38944 21.1297 8.53937 21.2733 8.70016C20.9818 8.23517 20.7185 7.82015 20.4901 7.45728C20.266 7.08355 20.0375 6.79239 19.8722 6.5425C19.8613 6.52512 19.8504 6.51208 19.8396 6.49687C19.5915 6.41865 19.3522 6.33391 19.1238 6.24482C18.7234 6.09272 18.3666 5.90803 18.0076 5.73202C17.6552 5.5495 17.331 5.34743 17.0395 5.12362C16.8937 5.0128 16.7566 4.89547 16.6261 4.77162C16.5608 4.71077 16.4977 4.64776 16.4368 4.58258C16.3737 4.51956 16.3106 4.45655 16.2497 4.39136C15.7645 3.87639 15.4251 3.25061 15.201 2.52704C14.9661 1.81434 14.8703 0.979957 14.9225 0.00651077C15.8755 -0.0130451 16.7283 0.158612 17.4659 0.478024C18.1926 0.8083 18.7844 1.30806 19.263 1.9056C19.3217 1.98165 19.3805 2.0577 19.4349 2.13592C19.4871 2.21632 19.5371 2.29889 19.5872 2.38363C19.6851 2.55311 19.7743 2.72694 19.8548 2.90729C20.018 3.26799 20.1507 3.65041 20.2486 4.04805C20.3552 4.44134 20.3965 4.87809 20.4226 5.31483C20.4357 5.56906 20.4357 5.82546 20.427 6.0862C20.4379 6.10141 20.4487 6.11662 20.4596 6.13401C20.6315 6.38606 20.8643 6.68157 21.0971 7.05747C21.3364 7.42904 21.6105 7.85709 21.9173 8.33512C22.3437 9.0261 22.8202 9.83875 23.3184 10.76C23.2967 10.6992 23.2771 10.6362 23.2554 10.5754C23.1792 10.3646 23.1118 10.1538 23.0552 9.94305C22.8224 9.09997 22.7484 8.24386 22.7811 7.42252C22.8246 6.59465 23.0378 5.7581 23.4164 4.94762C23.7884 4.14366 24.3454 3.35056 25.1221 2.59657C25.9205 3.4114 26.4231 4.31097 26.7343 5.19098C26.8104 5.41261 26.8778 5.6299 26.9257 5.85153C26.9692 6.07534 26.9997 6.29914 27.0171 6.52078C27.0541 6.96404 27.0388 7.40296 26.9779 7.83319C26.8648 8.68713 26.521 9.5302 26.0272 10.3146C25.5507 11.0686 24.9263 11.7748 24.18 12.431C24.5912 13.2697 25.0089 14.1801 25.4158 15.1536L25.7878 14.3605L26.1077 13.6022C26.3187 13.0959 26.5232 12.5744 26.6777 12.1746C26.5907 12.1007 26.5167 12.0116 26.4666 11.9008C26.2882 11.5053 26.4384 11.0403 26.8409 10.8426C27.2347 10.6492 27.7372 10.8078 27.9222 11.2185C28.1071 11.6292 27.9287 12.1072 27.524 12.2897C27.4131 12.3397 27.2956 12.3593 27.1803 12.3593C27.0236 12.7634 26.8147 13.2936 26.5994 13.8086L26.2752 14.5756L25.6899 15.825C25.8161 16.1379 25.9401 16.4551 26.062 16.7832C26.2338 17.2395 26.384 17.7154 26.5515 18.1934C26.6907 18.6019 26.8365 19.0148 26.9583 19.4407C26.9496 19.3668 26.9388 19.2907 26.9301 19.2169C26.9061 18.9865 26.8735 18.7627 26.8583 18.5389C26.8256 18.0913 26.83 17.648 26.8713 17.2135C26.8909 16.9962 26.9257 16.7789 26.9605 16.5681C26.9932 16.3574 27.0345 16.1488 27.0867 15.9423C27.2956 15.1145 27.6676 14.3192 28.2202 13.5739C28.7554 12.8351 29.4734 12.1463 30.4046 11.5423C30.5613 11.79 30.7048 12.0377 30.831 12.2832C30.9594 12.5288 31.0551 12.783 31.1465 13.0285C31.3249 13.5239 31.4468 14.0128 31.5164 14.4887C31.5947 14.9624 31.5795 15.4382 31.5316 15.8924C31.4794 16.3487 31.3793 16.7876 31.2335 17.2091C31.1596 17.4199 31.0747 17.6263 30.979 17.8262C30.8767 18.0283 30.7614 18.2282 30.6374 18.4216C30.3894 18.8084 30.0978 19.1756 29.7693 19.5211C29.1362 20.186 28.3617 20.7726 27.4762 21.2811C27.6067 21.7852 27.7177 22.3023 27.8438 22.8238C27.9069 23.0954 27.9722 23.3692 28.0353 23.6452C28.0788 23.882 28.1223 24.1189 28.1658 24.3579L28.3834 24.0667C28.6119 23.7582 28.8947 23.3757 29.1492 22.9955C29.4604 22.537 29.7671 22.0611 30.0043 21.6918C29.926 21.5962 29.8672 21.4853 29.8368 21.3593C29.7845 21.1377 29.8302 20.9139 29.9434 20.7292C30.05 20.5467 30.2284 20.4032 30.4525 20.3446C30.6766 20.2859 30.9072 20.3228 31.0965 20.4337C31.2792 20.5467 31.4185 20.7313 31.4707 20.9617C31.5773 21.4223 31.2945 21.8786 30.8419 21.9786C30.7092 22.009 30.5787 22.0025 30.4568 21.9721C30.2175 22.3458 29.9064 22.826 29.5931 23.291C29.332 23.6799 29.0448 24.0689 28.812 24.3818L28.2942 25.0727C28.3094 25.1618 28.3268 25.2487 28.3421 25.3378C28.3899 25.6247 28.4552 25.9093 28.4878 26.2026C28.564 26.785 28.6401 27.3738 28.7185 27.967C28.7642 28.2647 28.7859 28.5645 28.8098 28.8666C28.8098 28.8905 28.8142 28.9166 28.8164 28.9405C28.8403 28.5971 28.8816 28.2582 28.9164 27.9322C28.9752 27.4738 29.0687 27.0305 29.1993 26.6024C29.3298 26.1744 29.5017 25.7594 29.6845 25.3661C30.0609 24.5773 30.5961 23.8516 31.3032 23.2149C32.0081 22.5783 32.8566 22.0329 33.9205 21.6114C34.0271 21.8938 34.125 22.172 34.2011 22.4457C34.2686 22.7217 34.323 22.9955 34.3621 23.2627C34.4426 23.7994 34.4666 24.3166 34.4405 24.812C34.4318 25.0597 34.3904 25.3031 34.3426 25.5399C34.2947 25.7768 34.2338 26.0071 34.162 26.2309C34.0184 26.6785 33.8269 27.1022 33.5941 27.4955C33.3679 27.8888 33.0676 28.256 32.7391 28.595C32.4106 28.9339 32.0429 29.2425 31.6426 29.5206C30.8637 30.0638 29.9673 30.4919 28.9556 30.8222C29.0165 31.9129 29.0383 33.0211 29.0209 34.1401C29.3538 33.8424 29.7998 33.4383 30.2414 33.0189C30.6505 32.6213 31.0595 32.2085 31.375 31.8847C31.3119 31.7695 31.2727 31.6435 31.2705 31.5044C31.2575 31.0351 31.636 30.6331 32.1169 30.6092C32.5955 30.5831 32.9958 30.959 33.0089 31.4479C33.0219 31.9368 32.6412 32.3367 32.1625 32.3432C32.019 32.3432 31.8862 32.3106 31.7644 32.2519C31.4446 32.58 31.029 32.9994 30.6135 33.4035C29.9651 34.0163 29.3102 34.5986 29.0057 34.868C28.9643 36.1848 28.8664 37.5146 28.7141 38.8466C29.0535 37.5103 29.58 36.3304 30.348 35.333C30.6352 34.9745 30.9311 34.6421 31.2749 34.3357C31.6165 34.0293 31.9972 33.7512 32.4149 33.5035C32.6238 33.3796 32.8435 33.2645 33.072 33.1558C33.2961 33.0472 33.531 32.9494 33.7769 32.8581C34.2664 32.6778 34.7995 32.5322 35.3738 32.4301C35.4217 32.7365 35.4696 33.0341 35.4804 33.3275C35.4935 33.6208 35.4935 33.9055 35.4804 34.1836C35.4543 34.7398 35.3804 35.2657 35.2324 35.7567C35.091 36.2478 34.9061 36.7063 34.6754 37.13C34.4318 37.5515 34.1489 37.9361 33.8291 38.286C33.1982 38.9835 32.3736 39.5267 31.4576 39.9221C30.9964 40.1199 30.5112 40.2828 29.9956 40.4089C29.5061 40.5262 28.9948 40.6131 28.4683 40.6718C28.2986 41.7778 28.0919 42.8816 27.8438 43.9767C28.2746 43.7312 28.7663 43.4465 29.2406 43.1445C29.6866 42.8642 30.1936 42.5383 30.6418 42.2406C30.6004 42.1102 30.5852 41.969 30.6069 41.8256C30.6874 41.3475 31.1465 41.0194 31.636 41.0933C32.1256 41.1672 32.4563 41.6344 32.3736 42.1341C32.2974 42.6339 31.8123 42.9576 31.3271 42.862C31.1791 42.8338 31.0508 42.7664 30.942 42.6817C30.4895 42.9815 29.976 43.3118 29.5256 43.5943C29.0187 43.918 28.4944 44.2179 28.0418 44.4765L27.6741 44.6829C27.6524 44.7763 27.6306 44.8676 27.6089 44.961C27.2956 46.2169 26.9301 47.4598 26.5145 48.681C27.1433 47.3946 27.9265 46.306 28.9295 45.4586C29.6214 44.8546 30.4546 44.3787 31.388 44.0528C32.3214 43.7268 33.3874 43.5574 34.5862 43.5921C34.5275 44.8676 34.212 45.9844 33.7356 46.921C33.4854 47.3859 33.196 47.8075 32.874 48.1834C32.5585 48.5615 32.1734 48.8831 31.7796 49.1677C31.3793 49.448 30.9594 49.687 30.5003 49.8739C30.0391 50.0608 29.5539 50.2042 29.0492 50.3041C28.5444 50.4041 28.0201 50.4606 27.4783 50.4779C26.9649 50.4932 26.4275 50.4671 25.8836 50.4106C25.4767 51.4688 25.0351 52.5052 24.5608 53.52C24.9937 53.3831 25.5463 53.2071 26.0837 53.0072C26.5972 52.8225 27.1781 52.603 27.6894 52.4031C27.6741 52.2597 27.6894 52.1098 27.7438 51.9664C27.9287 51.5014 28.4661 51.271 28.9426 51.4514C29.419 51.6317 29.6496 52.175 29.456 52.6595C29.2667 53.1484 28.7119 53.37 28.2442 53.168C28.0984 53.1049 27.9831 53.0093 27.8895 52.8942C27.3695 53.0984 26.7799 53.3201 26.2643 53.5048C25.6573 53.7307 25.0329 53.9263 24.576 54.0697L24.2453 54.1718C23.5991 55.5016 22.9007 56.788 22.1588 58.0156C23.0813 56.8445 24.1147 55.9058 25.3222 55.2669C26.1468 54.8106 27.0824 54.5151 28.0897 54.3891C29.0949 54.2653 30.2001 54.3239 31.3945 54.6173C30.7048 57.1573 29.208 58.8348 27.3608 59.604C26.4514 60.0016 25.4267 60.1646 24.378 60.1472C23.3576 60.132 22.2741 59.9191 21.1819 59.5584C20.5466 60.521 19.8874 61.4422 19.213 62.3223C19.796 62.2679 20.3138 62.2114 20.7816 62.1549C21.3342 62.0811 21.963 61.9876 22.5265 61.8964C22.5439 61.7464 22.5918 61.5987 22.6832 61.4661C22.9703 61.0359 23.5599 60.9208 23.9994 61.2098C24.4389 61.4987 24.5542 62.0941 24.254 62.5417C23.9516 62.9872 23.3424 63.0893 22.9181 62.7851C22.7832 62.6873 22.6853 62.5613 22.6179 62.4222C22.0522 62.5135 21.4147 62.6091 20.8534 62.683C20.316 62.7503 19.7221 62.8133 19.0346 62.8742L18.7691 62.8959C17.7748 64.1518 16.7501 65.3208 15.721 66.3942C16.9329 65.3904 18.2078 64.6581 19.5785 64.2626C20.0549 64.1344 20.5292 64.0388 21.0231 63.991C21.517 63.9432 22.0239 63.9432 22.5461 63.9954C23.5839 64.0953 24.6674 64.3887 25.7987 64.9449C24.5477 67.3394 22.6701 68.6844 20.662 69.0603C19.6481 69.245 18.6038 69.1972 17.5573 68.9473C16.5238 68.6931 15.4947 68.2477 14.4809 67.6436C13.9457 68.1629 13.4104 68.6583 12.8818 69.1255C12.5663 69.4036 12.253 69.6709 11.944 69.9316C12.4031 69.9903 12.9492 70.0446 13.4822 70.0968L13.6237 70.1098C13.913 70.1359 14.2111 70.1641 14.4809 70.1815L15.288 70.2293C15.3381 70.0794 15.4208 69.9382 15.5448 69.823C15.9408 69.4688 16.5456 69.4688 16.9263 69.8578C17.3005 70.2402 17.2962 70.8812 16.8806 71.2528C16.4716 71.6287 15.845 71.6069 15.486 71.2028C15.3707 71.0724 15.2989 70.9203 15.2619 70.7617L14.4461 70.7139C14.1654 70.6965 13.863 70.6683 13.5714 70.64L13.43 70.627C12.7686 70.5618 12.0833 70.4922 11.5633 70.4184L11.3827 70.3923C9.98594 71.5265 8.66096 72.4761 7.46869 73.2583C8.92422 72.5108 10.3732 72.048 11.857 71.9655C12.3552 71.935 12.8578 71.9524 13.3648 72.0198C13.8652 72.0806 14.3699 72.1893 14.879 72.3522C15.8951 72.6825 16.9242 73.2279 17.9228 74.0253C16.1366 76.1482 13.9457 77.0695 11.8505 76.9957C11.324 76.9761 10.804 76.8979 10.2927 76.7675C9.7749 76.6263 9.26797 76.4329 8.77192 76.1873C8.27587 75.9418 7.79287 75.6485 7.32075 75.3095C6.86821 74.9814 6.4222 74.6033 5.99359 74.1926C5.71728 74.3621 5.44967 74.5208 5.19729 74.6685C4.20301 75.2356 3.41107 75.668 2.86062 75.9375C2.31236 76.2156 2.02081 76.3633 2.02081 76.3633L0.476089 75.5116C0.476089 75.5116 1.1636 75.1878 1.73145 74.914L1.75538 74.9119Z" fill="url(#paint0_linear_71_1307)"/>
</g>
<defs>
<linearGradient id="paint0_linear_71_1307" x1="17.9989" y1="77" x2="17.9989" y2="-6.91453e-06" gradientUnits="userSpaceOnUse">
<stop stop-color="#A57426"/>
<stop offset="0.14" stop-color="#C2994A"/>
<stop offset="0.3" stop-color="#DEBC6C"/>
<stop offset="0.44" stop-color="#EFD282"/>
<stop offset="0.52" stop-color="#F6DB8A"/>
<stop offset="0.63" stop-color="#F1D585"/>
<stop offset="0.76" stop-color="#E6C778"/>
<stop offset="0.9" stop-color="#D2AE62"/>
<stop offset="1" stop-color="#C29A50"/>
</linearGradient>
<clipPath id="clip0_71_1307">
<rect width="35" height="77" fill="white" transform="matrix(-1 0 0 1 35.5 0)"/>
</clipPath>
</defs>
</svg>
