<svg width="38" height="38" viewBox="0 0 38 38" fill="none" xmlns="http://www.w3.org/2000/svg">
<circle cx="18.625" cy="19" r="18.5" fill="url(#paint0_linear_71_1432)"/>
<g filter="url(#filter0_d_71_1432)">
<path d="M18.413 9.5V11.3851H16.7922L17.0988 12.135C17.2303 12.4778 17.5003 12.6489 17.9092 12.6489H18.413V14.2981H16.6607C16.1495 14.2981 15.704 13.9766 15.3243 13.3341L14.4041 11.3846H13.6813C13.4766 11.3846 13.3159 11.5133 13.1992 11.7705L12.279 13.3553C12.0017 13.8693 11.4608 14.1265 10.6583 14.1265H9.125V12.413C9.75294 12.413 10.1836 12.1775 10.4175 11.7062L11.5126 9.86407C11.6145 9.62136 11.8776 9.5 12.3013 9.5H18.413ZM28.9495 15.7331V17.5326H20.3408V19.0749H27.9858V20.96H9.8261V19.0749H17.8217V17.5326H9.125V15.7331H17.8217V14.448H20.3408V15.7331H28.9495ZM28.4897 22.6735V24.5586H26.0362V27.4716C26.0362 28.1572 25.5176 28.5 24.4808 28.5H19.0484V26.8078H23.0573C23.3055 26.8078 23.4296 26.6864 23.4296 26.4437V24.5586H9.67282V22.6735H23.4296V21.5813H26.0362V22.6735H28.4897ZM10.2859 25.5865H13.3529L13.7692 26.2078C14.0174 26.4791 14.4338 26.6149 15.0177 26.6149H18.3255V28.4144H13.7692C12.5129 28.4144 11.6298 27.9716 11.1186 27.0863L10.2859 25.587V25.5865ZM28.9495 9.5V11.3851H26.9782L27.4162 12.0707C27.6056 12.4135 27.9928 12.5846 28.5772 12.5846H29.125V14.3841H27.3727C26.7008 14.3841 26.1312 14.0559 25.6639 13.3988L24.503 11.3851H23.5171C23.2981 11.3851 23.13 11.5209 23.0133 11.7922L22.1371 13.4631C21.8884 14.0201 21.3777 14.2986 20.6038 14.2986H19.1141V12.5851C19.6981 12.5851 20.1 12.3356 20.3191 11.8352L21.3707 9.86452C21.4726 9.62181 21.7139 9.50045 22.0936 9.50045H28.95L28.9495 9.5Z" fill="white"/>
</g>
<defs>
<filter id="filter0_d_71_1432" x="5.125" y="6.5" width="28" height="27" filterUnits="userSpaceOnUse" color-interpolation-filters="sRGB">
<feFlood flood-opacity="0" result="BackgroundImageFix"/>
<feColorMatrix in="SourceAlpha" type="matrix" values="0 0 0 0 0 0 0 0 0 0 0 0 0 0 0 0 0 0 127 0" result="hardAlpha"/>
<feOffset dy="1"/>
<feGaussianBlur stdDeviation="2"/>
<feComposite in2="hardAlpha" operator="out"/>
<feColorMatrix type="matrix" values="0 0 0 0 0 0 0 0 0 0 0 0 0 0 0 0 0 0 0.2 0"/>
<feBlend mode="normal" in2="BackgroundImageFix" result="effect1_dropShadow_71_1432"/>
<feBlend mode="normal" in="SourceGraphic" in2="effect1_dropShadow_71_1432" result="shape"/>
</filter>
<linearGradient id="paint0_linear_71_1432" x1="0.125" y1="0.5" x2="37.125" y2="37.5" gradientUnits="userSpaceOnUse">
<stop stop-color="#53DC77"/>
<stop offset="1" stop-color="#0D8B70"/>
</linearGradient>
</defs>
</svg>
