<svg width="38" height="38" viewBox="0 0 38 38" fill="none" xmlns="http://www.w3.org/2000/svg">
<circle cx="18.625" cy="19" r="18.5" fill="url(#paint0_linear_71_1536)"/>
<path d="M10.5278 19.0861H14.701V27.599C14.701 28.461 14.1822 28.892 13.1442 28.892H12.1061V27.4482H12.517C12.8196 27.4482 12.9709 27.333 12.9709 27.1033V26.2413H11.479V27.1033C11.479 28.2956 10.8734 28.892 9.66257 28.892H8.625V27.4482H9.3385C9.5547 27.4482 9.66303 27.2974 9.66303 26.9958V19.0861H10.5278ZM17.555 9H19.9551V10.0347H28.5391V11.6726H12.6034V12.2544C12.6034 12.4412 12.7835 12.5346 13.1442 12.5346H27.7607V13.8061H11.6522C10.6864 13.8061 10.2038 13.5474 10.2038 13.0303V11.6726H8.79778V10.0347H17.5545V9H17.555ZM10.1169 14.7542H27.3927V17.1894C27.3927 17.8218 26.9603 18.1375 26.0955 18.1375H10.1169V14.7538V14.7542ZM11.479 22.0174H12.9709V20.4443H11.479V22.0174ZM11.479 24.8404H12.9709V23.4827H11.479V24.8404ZM24.5387 16.9097C24.7256 16.9097 24.8198 16.8596 24.8198 16.7589V15.9616H12.7118V16.9097H24.5387ZM15.8249 19.1722H21.5115V25.875C21.5115 26.4641 21.1508 26.7803 20.4305 26.8231L20.5818 27.4049C20.6535 27.6491 20.798 27.7712 21.0142 27.7712H21.5115V28.9995H20.041C19.7384 28.9995 19.4715 28.7626 19.2411 28.2883L18.6789 26.8227H18.1816L17.533 28.2883C17.331 28.7626 16.9923 28.9995 16.5169 28.9995H15.025V27.6847H15.8249C15.9977 27.6847 16.1275 27.5694 16.2139 27.3398L16.4301 26.8227H15.8245V19.1718L15.8249 19.1722ZM17.555 21.3924H19.7819V20.5304H17.555V21.3924ZM17.555 23.4827H19.7819V22.5346H17.555V23.4827ZM19.2846 25.4654C19.6159 25.4654 19.7819 25.3433 19.7819 25.0991V24.6034H17.555V25.4654H19.2846ZM22.3118 19.0861H27.7607V26.9958C27.7607 27.24 27.869 27.3621 28.0852 27.3621H28.6259V28.8925H27.134C26.341 28.8925 25.9447 28.4902 25.9447 27.6856V24.69H24.7339L24.5392 27.0177C24.4381 28.3394 24.1209 29.0005 23.588 29.0005H21.9663V27.2765H22.6368C22.8384 27.2765 22.9682 26.9316 23.0258 26.2418L23.1341 24.69H22.1395V23.2029H23.2205L23.3718 20.8106H22.3123V19.0866L22.3118 19.0861ZM24.8413 23.2025H25.9438V20.8101H25.0141L24.8413 23.2025Z" fill="white"/>
<defs>
<linearGradient id="paint0_linear_71_1536" x1="0.125" y1="0.5" x2="37.125" y2="37.5" gradientUnits="userSpaceOnUse">
<stop stop-color="#59B7FF"/>
<stop offset="1" stop-color="#005795"/>
</linearGradient>
</defs>
</svg>
